<svg width="32" height="33" viewBox="0 0 32 33" fill="none" xmlns="http://www.w3.org/2000/svg">
<circle cx="16" cy="17" r="16" fill="#FFE7DE"/>
<path d="M21.7699 4.01481C21.5635 3.83606 21.2945 3.74661 21.0222 3.76612C20.7498 3.78563 20.4963 3.91251 20.3175 4.11886L16.2539 8.80983L15.4056 7.81954C15.3178 7.71624 15.2104 7.63129 15.0897 7.56957C14.9689 7.50785 14.8372 7.47058 14.702 7.4599C14.5669 7.44921 14.4309 7.46532 14.302 7.5073C14.173 7.54928 14.0537 7.6163 13.9507 7.70453C13.8477 7.79275 13.7632 7.90044 13.7019 8.02141C13.6407 8.14238 13.6039 8.27426 13.5937 8.40947C13.5836 8.54469 13.6002 8.68058 13.6427 8.80935C13.6851 8.93813 13.7526 9.05725 13.8412 9.15988L15.4673 11.0577C15.5637 11.1702 15.6832 11.2605 15.8177 11.3226C15.9522 11.3846 16.0985 11.417 16.2466 11.4174H16.2495C16.3971 11.4174 16.5431 11.3856 16.6773 11.3242C16.8116 11.2628 16.9311 11.1732 17.0277 11.0615L21.8741 5.46697C21.9626 5.36478 22.0302 5.24616 22.0728 5.11788C22.1155 4.9896 22.1325 4.85416 22.1228 4.71931C22.1131 4.58447 22.077 4.45284 22.0165 4.33196C21.9559 4.21108 21.8721 4.10332 21.7699 4.01481Z" fill="#F16A36"/>
<path d="M28.9901 8.34893C28.9721 7.78234 28.7658 7.2399 28.4064 6.81449C28.0471 6.38908 27.5572 6.10716 27.0205 6.01701C23.8135 5.41618 20.7659 2.48245 19.2359 0.788747C19.0151 0.543612 18.7492 0.347423 18.454 0.21191C18.1588 0.0763977 17.8405 0.00434389 17.518 5.67986e-05L17.5149 0.000792751L17.5116 5.67986e-05C17.1828 -0.00226283 16.8571 0.0664905 16.5551 0.201981C16.253 0.337471 15.9812 0.536758 15.7567 0.787275C14.2253 2.48245 11.1778 5.41618 7.97076 6.01701C7.43433 6.11033 6.94542 6.39448 6.58714 6.82116C6.22886 7.24784 6.02331 7.79073 6.00542 8.35757C5.96415 10.8178 6.1587 13.2761 6.58618 15.696L6.58665 15.6972C7.91652 23.0109 11.4211 27.9083 16.7236 29.8611C16.9769 29.9534 17.2433 30.0004 17.5116 30C17.7733 30.0004 18.0331 29.9525 18.2788 29.8586C23.5796 27.8554 27.0875 22.9582 28.4234 15.6964V15.6956C28.8572 13.274 29.0471 10.8117 28.9901 8.34893ZM11.5981 14.9097H7.74103C7.39606 12.7521 7.24016 10.5663 7.27525 8.37935C7.28554 8.11861 7.38324 7.8699 7.55132 7.67658C7.71941 7.48325 7.94721 7.35755 8.19504 7.3214C11.761 6.65282 15.0424 3.50974 16.6823 1.6943C16.7405 1.62933 16.8057 1.5716 16.8766 1.52229V8.92984C15.4521 9.09225 14.1322 9.78763 13.1617 10.8871C12.1911 11.9866 11.6356 13.4157 11.5981 14.9097ZM17.5102 19.5223C16.8746 19.5232 16.2467 19.3762 15.6725 19.092C15.0982 18.8078 14.592 18.3936 14.1907 17.8795C13.7894 17.3655 13.5031 16.7645 13.3527 16.1205C13.2023 15.4765 13.1917 14.8055 13.3214 14.1566C13.4512 13.5077 13.7181 12.8972 14.1028 12.3695C14.4875 11.8418 14.9803 11.4103 15.5452 11.1064C16.1101 10.8024 16.7329 10.6337 17.3682 10.6126C18.0035 10.5915 18.6353 10.7184 19.2176 10.9842L19.8092 10.2721C19.9963 10.0468 20.2277 9.86613 20.4876 9.74235C20.7476 9.61858 21.0301 9.55458 21.3159 9.55471C21.6978 9.55483 22.0717 9.66941 22.3929 9.88482C22.7142 10.1002 22.9693 10.4074 23.128 10.7697C23.2866 11.132 23.342 11.5343 23.2877 11.9285C23.2333 12.3227 23.0715 12.6924 22.8214 12.9934L21.7181 14.3215C21.8264 14.9608 21.7986 15.6171 21.6367 16.244C21.4748 16.8708 21.1828 17.4529 20.7813 17.9491C20.3799 18.4452 19.8787 18.8433 19.3134 19.1152C18.7481 19.387 18.1324 19.526 17.5099 19.5222L17.5102 19.5223ZM18.1465 28.4952V21.2025C19.4044 21.0584 20.5851 20.4984 21.516 19.6044C22.4469 18.7105 23.0791 17.5295 23.3203 16.234H27.02C26.0579 20.7503 23.7303 26.2244 18.1465 28.4952Z" fill="#F16A36"/>
</svg>
